<?xml version="1.0" encoding="UTF-8" standalone="no"?>
<!-- Created with Inkscape (http://www.inkscape.org/) -->
<svg
   xmlns:dc="http://purl.org/dc/elements/1.1/"
   xmlns:cc="http://web.resource.org/cc/"
   xmlns:rdf="http://www.w3.org/1999/02/22-rdf-syntax-ns#"
   xmlns:svg="http://www.w3.org/2000/svg"
   xmlns="http://www.w3.org/2000/svg"
   xmlns:sodipodi="http://sodipodi.sourceforge.net/DTD/sodipodi-0.dtd"
   xmlns:inkscape="http://www.inkscape.org/namespaces/inkscape"
   width="744.09448819"
   height="1052.3622047"
   id="svg2"
   sodipodi:version="0.32"
   inkscape:version="0.44.1"
   sodipodi:docbase="C:\Documents and Settings\igor\Рабочий стол"
   sodipodi:docname="xxo.svg">
  <defs
     id="defs4" />
  <sodipodi:namedview
     id="base"
     pagecolor="#ffffff"
     bordercolor="#666666"
     borderopacity="1.0"
     gridtolerance="10000"
     guidetolerance="10"
     objecttolerance="10"
     inkscape:pageopacity="0.0"
     inkscape:pageshadow="2"
     inkscape:zoom="0.35"
     inkscape:cx="375"
     inkscape:cy="520"
     inkscape:document-units="px"
     inkscape:current-layer="layer1" />
  <metadata
     id="metadata7">
    <rdf:RDF>
      <cc:Work
         rdf:about="">
        <dc:format>image/svg+xml</dc:format>
        <dc:type
           rdf:resource="http://purl.org/dc/dcmitype/StillImage" />
      </cc:Work>
    </rdf:RDF>
  </metadata>
  <g
     inkscape:label="Layer 1"
     inkscape:groupmode="layer"
     id="layer1">
    <g
       id="g1880"
       inkscape:label="Layer 1"
       transform="translate(-263.3685,194.4266)">
      <path
         d="M 2025.663,-721.02428 C 2013.764,-714.01773 2002.0002,-706.78487 1990.2542,-699.52577 C 1976.1123,-690.94693 1962.2163,-682.00048 1949.1836,-671.81997 C 1946.0125,-671.68062 1945.7726,-666.46587 1944.0672,-663.78882 L -1591.6931,1377.5833 C -1594.0871,1377.8751 -1599.7057,1375.6857 -1602.8397,1378.9417 C -1618.02,1385.0575 -1632.5705,1392.5249 -1646.9216,1400.3986 C -1658.935,1406.857 -1670.9346,1413.344 -1682.8059,1420.0612 L 2025.663,-721.02428 z "
         id="path1872"
         style="opacity:1;fill:#30435d;fill-opacity:0.9754902;stroke:black;stroke-width:0.30000001;stroke-linecap:round;stroke-linejoin:miter;stroke-miterlimit:4;stroke-dasharray:none;stroke-opacity:1" />
      <path
         d="M 2123.8287,-761.62378 C 2115.2388,-756.77208 2106.9421,-751.44767 2098.6362,-746.13711 C 2092.7667,-742.82908 2087.6138,-738.53027 2082.3445,-734.43949 C 2078.803,-731.7227 2075.2755,-728.96028 2071.7217,-726.26684 L -1530.0092,1353.1935 C -1534.1575,1354.9442 -1538.3553,1356.6299 -1542.5125,1358.3727 C -1548.7242,1360.9202 -1555.055,1363.2583 -1560.895,1366.6942 C -1569.5749,1371.1894 -1578.2617,1375.671 -1586.6859,1380.6428 L 2123.8287,-761.62378 z "
         id="path1874"
         style="opacity:1;fill:#30435d;fill-opacity:0.9754902;stroke:black;stroke-width:0.30000001;stroke-linecap:round;stroke-linejoin:miter;stroke-miterlimit:4;stroke-dasharray:none;stroke-opacity:1" />
      <path
         d="M 2069.0316,-721.32403 C 2055.121,-713.37325 2041.4341,-705.08477 2028.2368,-696.00799 C 2023.6506,-693.07325 2019.7989,-689.21963 2015.7426,-685.66944 C 2012.9762,-682.61843 2010.0084,-679.88592 2007.1346,-676.95092 C 2004.5876,-672.74453 2000.9995,-669.94907 1997.1756,-666.87901 C 1995.0341,-664.77295 1993.2008,-662.3785 1991.2268,-660.1433 L -1550.4897,1384.6677 C -1553.1698,1385.1227 -1555.9309,1385.3396 -1558.5897,1386.043 C -1563.0189,1387.4848 -1566.8711,1389.4413 -1571.5826,1389.2224 C -1575.4532,1390.1769 -1579.193,1391.2996 -1583.1038,1392.1255 C -1588.1679,1393.8358 -1593.395,1395.2135 -1598.1867,1397.7086 C -1612.629,1404.592 -1626.6358,1412.289 -1640.4602,1420.352 L 2069.0316,-721.32403 z "
         id="path1876"
         style="opacity:1;fill:#30435d;fill-opacity:0.9754902;stroke:black;stroke-width:0.30000001;stroke-linecap:round;stroke-linejoin:miter;stroke-miterlimit:4;stroke-dasharray:none;stroke-opacity:1" />
    </g>
  </g>
</svg>
